# xmcd
#
# Track frame offsets: 
#        150
#        20093
#        43121
#        59700
#        73822
#        94180
#        116170
#        131596
#        145244
#        163886
#        178819
#        198329
#        213736
#
# Disc length: 3124 seconds
#
# Revision: 0
# Processed by: cddbd v1.5.1PL0 Copyright (c) Steve Scherf et al.
# Submitted via: ExactAudioCopy v0.95a5
#
DISCID=d70c320d
DTITLE=甘雅丹 - 老祖屋
DYEAR=1900
DGENRE=Pop
TTITLE0=老祖屋
TTITLE1=天堂
TTITLE2=蓝色的故乡
TTITLE3=可爱一朵玫瑰花
TTITLE4=雪域之光
TTITLE5=家乡
TTITLE6=克鲁伦河
TTITLE7=美丽的草原我的家
TTITLE8=走进西藏
TTITLE9=掀起你的盖头来
TTITLE10=神奇的九寨
TTITLE11=蒙古人
TTITLE12=青藏高原（器乐版）
EXTD=
EXTT0=
EXTT1=
EXTT2=
EXTT3=
EXTT4=
EXTT5=
EXTT6=
EXTT7=
EXTT8=
EXTT9=
EXTT10=
EXTT11=
EXTT12=
PLAYORDER=
